<svg data-name="Ebene 1" xmlns="http://www.w3.org/2000/svg" viewBox="0 0 173.032 94.529"><path d="M144.147 84.01c10.689 8.313 23.789-19.726 19.4-31.78 0 0-71.246-8.537-19.4 31.78" fill="#bd2d0b"/><path d="M129.878 49.41c-14.85 11.306-24.869-19.835-21.387-42.32s59.728 13.127 21.387 42.32" fill="#34bbda"/><path d="M135.294 47.525c-8.287 12.078 35.281 13.562 37.484-.763s-9.926-39.403-37.484.763" fill="#95c11f"/><path d="M125.406 59.627c-7.252-1.322-12.653-6.159-11.684-15.772 2.636 4.852 6.04 7.951 9.986 7.951a10.229 10.229 0 0 0 6.17-2.397c6.955-5.295 10.798-10.802 12.408-16.135a34.375 34.375 0 0 1 2.922 1.782 98.53 98.53 0 0 0-9.914 12.469c-1.433 2.09-1.314 3.862-.128 5.29-5.023 1.162-8.931 3.239-9.76 6.811" fill="#fff"/><path d="M129.822 60.007a24.657 24.657 0 0 1-4.416-.38c.828-3.573 4.737-5.65 9.76-6.812 1.557 1.873 4.952 3.154 9.097 3.783a33.932 33.932 0 0 1-14.44 3.41M123.708 51.806c-3.945 0-7.35-3.1-9.986-7.95a28.237 28.237 0 0 1 .643-3.718c1.877-7.84 7.462-10.799 13.856-10.799a30.538 30.538 0 0 1 14.065 3.936c-1.61 5.332-5.453 10.84-12.408 16.135a10.229 10.229 0 0 1-6.17 2.397" fill="#fff" opacity=".6"/><path d="M144.263 56.598c-4.145-.629-7.54-1.91-9.097-3.783-1.187-1.428-1.305-3.2.128-5.29a98.53 98.53 0 0 1 9.914-12.469c7.074 4.82 11.207 11.69 6.27 16.565a27.186 27.186 0 0 1-7.216 4.977" fill="#fff" opacity=".6"/><path d="M.086 94.107h2.657V84.095a2.776 2.776 0 0 1 2.463 1.426c1.199 1.46 2.56 3.402 3.953 5.508a17.269 17.269 0 0 1 1.717 3.078h3.337s-2.495-3.727-3.305-4.924c-.778-1.101-1.36-1.976-1.814-2.594a13.063 13.063 0 0 0-2.236-2.494h.324c3.532 0 5.897-2.43 5.897-6.092a5.83 5.83 0 0 0-2.203-4.664c-1.07-.875-2.56-1.425-5.606-1.425H.086v22.193zm5.25-19.959a7.205 7.205 0 0 1 2.786.455 3.664 3.664 0 0 1 2.17 3.37A4.473 4.473 0 0 1 9.16 81.31c-.81.809-2.042 1.133-4.018 1.133H2.776v-8.295zm12.96 19.959h12.473v-2.3h-9.785V83.74H28.6v-2.3h-7.615v-7.194h9.105l.357-2.203h-12.15v22.064zm24.137-22.42a8.308 8.308 0 0 0-5.8 2.106c-2.332 2.04-3.434 5.085-3.434 9.33 0 3.824.875 6.578 2.754 8.619a9.05 9.05 0 0 0 6.836 2.787 12.06 12.06 0 0 0 6.253-1.686V82.476h-7.484l.519 2.203h4.47v6.772a6.63 6.63 0 0 1-3.53.875 6.791 6.791 0 0 1-5.38-2.365 12.259 12.259 0 0 1-1.554-6.74 16.884 16.884 0 0 1 .875-5.637 5.45 5.45 0 0 1 5.54-3.76 7.93 7.93 0 0 1 4.828 1.719l1.198-1.653a9.021 9.021 0 0 0-6.09-2.203zm11.729 22.42h2.592V71.88h-2.592v22.227zm7.322-11.21c0 3.79.907 6.804 2.657 8.814a8.082 8.082 0 0 0 6.318 2.818 7.77 7.77 0 0 0 5.637-2.139c2.268-2.074 3.24-4.763 3.24-9.039 0-3.564-.615-6.156-2.009-8.23a8.014 8.014 0 0 0-6.998-3.63c-5.475 0-8.845 4.343-8.845 11.405zm13.802-6.222c.745 1.557 1.07 3.791 1.07 7.065 0 3.66-.519 5.443-1.62 6.836a4.908 4.908 0 0 1-4.147 1.91 5.794 5.794 0 0 1-4.73-2.397c-.875-1.49-1.426-4.406-1.426-7.744a12.872 12.872 0 0 1 1.134-6.123 5.305 5.305 0 0 1 4.762-2.591 5.23 5.23 0 0 1 4.957 3.044zm8.197 17.432h2.754l-.13-12.863a83.312 83.312 0 0 0-.291-6.026c.454 1.2 1.49 3.305 2.527 5.313l7.128 13.576h2.787V71.945h-2.625l.097 12.053c.033 2.916.292 6.74.292 6.74s-1.264-3.045-2.074-4.633l-7.387-14.16h-3.078v22.162zM0 63.275h11.08l.357-2.236h-8.78v-19.99H0v22.226zm14.807 0H27.28v-2.3h-9.785v-8.068h7.614v-2.3h-7.614v-7.193H26.6l.357-2.203h-12.15v22.064zm16.847 0h2.593V41.048h-2.593v22.227zm8.975 0h2.592V54.43h3.888c2.916 0 4.18-.648 5.314-1.75a6.77 6.77 0 0 0 2.074-5.281 6.087 6.087 0 0 0-2.852-5.314c-1.199-.778-2.462-1.037-4.86-1.037H40.63v22.227zm5.41-19.99c2.106 0 3.305.324 4.212 1.101a4.27 4.27 0 0 1 1.296 3.532 4.468 4.468 0 0 1-1.134 3.143c-.745.842-1.587 1.198-3.466 1.198H43.22v-8.974zm10.595.226h8.295c.971 0 1.684 0 2.3-.032a24.538 24.538 0 0 0-1.426 2.138L56.31 61.234v2.04h13.187l.68-2.267h-8.813c-.745 0-1.134 0-1.911.031.486-.744.875-1.328 1.36-2.137l9.234-15.358v-2.268H57.38l-.745 2.236zm18.241 19.764h2.592V41.048h-2.592v22.227zm16.557-22.42a8.308 8.308 0 0 0-5.8 2.105c-2.333 2.042-3.435 5.087-3.435 9.332 0 3.823.875 6.577 2.754 8.618a9.05 9.05 0 0 0 6.836 2.787 12.067 12.067 0 0 0 6.254-1.686V51.644h-7.484l.518 2.203h4.47v6.772a6.65 6.65 0 0 1-3.531.875 6.791 6.791 0 0 1-5.378-2.366 12.26 12.26 0 0 1-1.555-6.74 16.888 16.888 0 0 1 .875-5.637 5.45 5.45 0 0 1 5.54-3.759 7.932 7.932 0 0 1 4.827 1.718l1.199-1.653a9.028 9.028 0 0 0-6.09-2.203z" fill="#fff"/></svg>