<svg id="Ebene_1" data-name="Ebene 1" xmlns="http://www.w3.org/2000/svg" viewBox="0 0 714.331 89.416"><defs><style>.cls-1{fill:#008b4a}</style></defs><path class="cls-1" d="M710.909 73.419V57.423H0v15.996h710.909z"/><path fill="#1d1d1b" d="M355.101 74.044V58.757H1.166v15.287h353.935z"/><path class="cls-1" d="M355.455 89.416V73.419H0v15.997h355.455z"/><path fill="#ffe500" d="M710.909 89.416V73.419H355.455v15.997h355.454z"/><path class="cls-1" d="M569.322 371.055a4.16 4.16 0 1 0-4.161 4.16 4.165 4.165 0 0 0 4.161-4.16zM340.858 364.576c0-10.57-16.163-8.935-16.163-15.072 0-2.046 2.046-3.887 5.456-3.887 2.796 0 5.66 1.432 7.98 2.932l1.84-4.433c-3.478-2.796-6.138-4.092-9.957-4.092-6.07 0-11.321 4.092-11.321 10.026 0 11.457 16.232 8.866 16.232 15.344 0 2.865-3.41 4.229-5.934 4.229-2.864 0-5.729-1.227-9.138-3.069l-.683 5.114a14.909 14.909 0 0 0 9.685 3.547c6.137 0 12.003-3.614 12.003-10.639zM369.456 357.62h-11.322v-4.57c0-4.978 2.524-7.365 5.661-7.365s5.661 2.387 5.661 7.365v4.57zm-11.322 5.659h11.322v11.39h5.73V353.05c0-8.388-5.116-13.026-11.391-13.026s-11.39 4.638-11.39 13.026v21.619h5.73v-11.39zM386.981 357.62c0 9.684 5.798 17.595 14.391 17.595a13.355 13.355 0 0 0 10.981-6.547l-3.615-3.137c-2.251 2.796-4.57 4.024-7.161 4.024-4.501 0-8.32-4.569-8.32-11.935s3.819-11.935 8.32-11.935c2.591 0 4.91 1.16 7.161 4.025l3.615-3.206a13.445 13.445 0 0 0-10.981-6.48c-8.593 0-14.391 7.912-14.391 17.596z" transform="translate(-318.693 -340.024)"/><path class="cls-1" d="M111.05 13.026V.546h-5.73v34.099h5.73V18.756h11.32v15.889h5.73V.546h-5.73v12.48h-11.32z"/><path class="cls-1" d="M481.097 364.576c0-10.57-16.164-8.935-16.164-15.072 0-2.046 2.045-3.887 5.456-3.887 2.797 0 5.66 1.432 7.98 2.932l1.842-4.433c-3.479-2.796-6.139-4.092-9.958-4.092-6.071 0-11.322 4.092-11.322 10.026 0 11.457 16.231 8.866 16.231 15.344 0 2.865-3.409 4.229-5.931 4.229-2.866 0-5.73-1.227-9.141-3.069l-.681 5.114a14.905 14.905 0 0 0 9.685 3.547c6.138 0 12.003-3.614 12.003-10.639z" transform="translate(-318.693 -340.024)"/><path class="cls-1" d="M173.95 34.645h17.051v-5.66H179.68V18.756h11.321v-5.73H179.68v-6.82h11.321V.546H173.95v34.099zM222.395 22.302L209.027.546h-4.297v34.099h5.116V12.89l13.368 21.755h4.297V.546h-5.116v21.756zM293.525.546h-5.729v34.099h17.05v-5.66h-11.321V.546z"/><path class="cls-1" d="M650.681 357.62H639.36v-4.57c0-4.978 2.523-7.365 5.66-7.365s5.661 2.387 5.661 7.365v4.57zm-11.321 5.659h11.321v11.39h5.73V353.05c0-8.388-5.116-13.026-11.391-13.026-6.273 0-11.389 4.638-11.389 13.026v21.619h5.729v-11.39z" transform="translate(-318.693 -340.024)"/><path class="cls-1" d="M368.406 22.302L355.04.546h-4.298v34.099h5.116V12.89l13.369 21.755h4.296V.546h-5.117v21.756z"/><path class="cls-1" d="M706.604 374.669h7.979c8.458 0 15.346-7.638 15.346-17.049s-6.888-17.05-15.346-17.05h-7.979v34.099zm5.73-28.439h2.249c4.978 0 9.071 5.115 9.071 11.39s-4.093 11.389-9.071 11.389h-2.249V346.23z" transform="translate(-318.693 -340.024)"/><path class="cls-1" d="M467.978.546h-6.14l-8.116 20.596L445.675.546h-6.138l13.64 34.645h1.159L467.978.546z"/><path class="cls-1" d="M794.124 357.62c0 9.684 4.298 17.595 11.935 17.595 7.709 0 11.937-7.911 11.937-17.595s-4.228-17.596-11.937-17.596c-7.637 0-11.935 7.912-11.935 17.596zm6.003 0c0-6.547 2.727-11.935 5.932-11.935 3.274 0 5.936 5.388 5.936 11.935s-2.662 11.935-5.936 11.935c-3.205 0-5.932-5.388-5.932-11.935z" transform="translate(-318.693 -340.024)"/><path class="cls-1" d="M530.127 22.302L516.759.546h-4.296v34.099h5.117V12.89l13.367 21.755h4.296V.546h-5.116v21.756zM595.325 21.142L587.278.546h-6.139l2.592 6.615-5.456 13.981L570.227.546h-6.136l13.639 34.645h.545L586.8 13.64l8.525 21.551h.613L609.58.546h-6.138l-8.117 20.596zM617.58 34.645h17.05v-5.66h-11.32V18.756h11.32v-5.73h-11.32v-6.82h11.32V.546h-17.05v34.099zM654.089.546h-5.729v34.099h17.05v-5.66h-11.321V.546zM679.868 6.206v28.439h5.66V6.206h9.685V.546h-25.03v5.66h9.685z"/><path class="cls-1" d="M1033.024 371.055a4.16 4.16 0 1 0-4.16 4.16 4.163 4.163 0 0 0 4.16-4.16z" transform="translate(-318.693 -340.024)"/></svg>