<svg id="Ebene_1" data-name="Ebene 1" xmlns="http://www.w3.org/2000/svg" viewBox="0 0 714.3311 89.4156"><defs><style>.cls-1{fill:#008b4a;}.cls-2{fill:#1d1d1b;}.cls-3{fill:#ffe500;}</style></defs><polygon class="cls-1" points="710.909 73.419 710.909 57.423 0 57.423 0 73.419 710.909 73.419 710.909 73.419"/><polygon class="cls-2" points="355.101 74.044 355.101 58.757 1.166 58.757 1.166 74.044 355.101 74.044 355.101 74.044"/><polygon class="cls-1" points="355.455 89.416 355.455 73.419 0 73.419 0 89.416 355.455 89.416 355.455 89.416"/><polygon class="cls-3" points="710.909 89.416 710.909 73.419 355.455 73.419 355.455 89.416 710.909 89.416 710.909 89.416"/><path class="cls-1" d="M569.322,371.055a4.1605,4.1605,0,1,0-4.161,4.16,4.1647,4.1647,0,0,0,4.161-4.16Z" transform="translate(-318.6929 -340.0244)"/><path class="cls-1" d="M340.8584,364.576c0-10.57-16.1635-8.935-16.1635-15.072,0-2.046,2.046-3.887,5.4563-3.887,2.7961,0,5.66,1.432,7.9795,2.932l1.8406-4.433c-3.4778-2.7957-6.1379-4.0916-9.957-4.0916-6.07,0-11.3214,4.0916-11.3214,10.0256,0,11.457,16.2319,8.866,16.2319,15.344,0,2.865-3.4093,4.229-5.9335,4.229-2.8646,0-5.7292-1.227-9.1385-3.069l-.6826,5.114a14.9085,14.9085,0,0,0,9.6851,3.547c6.137,0,12.0031-3.614,12.0031-10.639Z" transform="translate(-318.6929 -340.0244)"/><path class="cls-1" d="M369.456,357.62H358.1342v-4.57c0-4.978,2.5242-7.365,5.6608-7.365s5.661,2.387,5.661,7.365v4.57Zm-11.3218,5.659H369.456v11.39h5.73V353.05c0-8.388-5.116-13.0256-11.391-13.0256s-11.3909,4.6376-11.3909,13.0256v21.619h5.73v-11.39Z" transform="translate(-318.6929 -340.0244)"/><path class="cls-1" d="M386.981,357.62c0,9.684,5.798,17.595,14.391,17.595a13.3551,13.3551,0,0,0,10.981-6.547l-3.615-3.137c-2.251,2.796-4.57,4.024-7.161,4.024-4.501,0-8.32-4.569-8.32-11.935s3.819-11.935,8.32-11.935c2.591,0,4.91,1.16,7.161,4.025l3.615-3.206a13.445,13.445,0,0,0-10.981-6.48c-8.593,0-14.391,7.9116-14.391,17.5956Z" transform="translate(-318.6929 -340.0244)"/><polygon class="cls-1" points="111.05 13.026 111.05 0.546 105.32 0.546 105.32 34.645 111.05 34.645 111.05 18.756 122.37 18.756 122.37 34.645 128.1 34.645 128.1 0.546 122.37 0.546 122.37 13.026 111.05 13.026 111.05 13.026"/><path class="cls-1" d="M481.097,364.576c0-10.57-16.164-8.935-16.164-15.072,0-2.046,2.045-3.887,5.456-3.887,2.797,0,5.66,1.432,7.98,2.932l1.842-4.433c-3.479-2.7957-6.139-4.0916-9.958-4.0916-6.071,0-11.322,4.0916-11.322,10.0256,0,11.457,16.231,8.866,16.231,15.344,0,2.865-3.409,4.229-5.931,4.229-2.866,0-5.73-1.227-9.141-3.069l-.681,5.114a14.9048,14.9048,0,0,0,9.685,3.547c6.138,0,12.003-3.614,12.003-10.639Z" transform="translate(-318.6929 -340.0244)"/><polygon class="cls-1" points="173.95 34.645 191.001 34.645 191.001 28.985 179.68 28.985 179.68 18.756 191.001 18.756 191.001 13.026 179.68 13.026 179.68 6.206 191.001 6.206 191.001 0.546 173.95 0.546 173.95 34.645 173.95 34.645"/><polygon class="cls-1" points="222.395 22.302 209.027 0.546 204.73 0.546 204.73 34.645 209.846 34.645 209.846 12.89 223.214 34.645 227.511 34.645 227.511 0.546 222.395 0.546 222.395 22.302 222.395 22.302"/><polygon class="cls-1" points="293.525 0.546 287.796 0.546 287.796 34.645 304.846 34.645 304.846 28.985 293.525 28.985 293.525 0.546 293.525 0.546"/><path class="cls-1" d="M650.681,357.62H639.36v-4.57c0-4.978,2.523-7.365,5.66-7.365s5.661,2.387,5.661,7.365v4.57Zm-11.321,5.659h11.321v11.39h5.73V353.05c0-8.388-5.116-13.0256-11.391-13.0256-6.273,0-11.389,4.6376-11.389,13.0256v21.619h5.729v-11.39Z" transform="translate(-318.6929 -340.0244)"/><polygon class="cls-1" points="368.406 22.302 355.04 0.546 350.742 0.546 350.742 34.645 355.858 34.645 355.858 12.89 369.227 34.645 373.523 34.645 373.523 0.546 368.406 0.546 368.406 22.302 368.406 22.302"/><path class="cls-1" d="M706.604,374.669h7.979c8.458,0,15.346-7.638,15.346-17.049s-6.888-17.05-15.346-17.05h-7.979V374.669Zm5.73-28.439h2.249c4.978,0,9.071,5.115,9.071,11.39s-4.093,11.389-9.071,11.389h-2.249V346.23Z" transform="translate(-318.6929 -340.0244)"/><polygon class="cls-1" points="467.978 0.546 461.838 0.546 453.722 21.142 445.675 0.546 439.537 0.546 453.177 35.191 454.336 35.191 467.978 0.546 467.978 0.546"/><path class="cls-1" d="M794.124,357.62c0,9.684,4.298,17.595,11.9351,17.595,7.7089,0,11.9369-7.911,11.9369-17.595s-4.228-17.5956-11.9369-17.5956c-7.6371,0-11.9351,7.9116-11.9351,17.5956Zm6.003,0c0-6.547,2.727-11.935,5.9321-11.935,3.2739,0,5.9359,5.388,5.9359,11.935s-2.662,11.935-5.9359,11.935c-3.2051,0-5.9321-5.388-5.9321-11.935Z" transform="translate(-318.6929 -340.0244)"/><polygon class="cls-1" points="530.127 22.302 516.759 0.546 512.463 0.546 512.463 34.645 517.58 34.645 517.58 12.89 530.947 34.645 535.243 34.645 535.243 0.546 530.127 0.546 530.127 22.302 530.127 22.302"/><polygon class="cls-1" points="595.325 21.142 587.278 0.546 581.139 0.546 583.731 7.161 578.275 21.142 570.227 0.546 564.091 0.546 577.73 35.191 578.275 35.191 586.8 13.64 595.325 35.191 595.938 35.191 609.58 0.546 603.442 0.546 595.325 21.142 595.325 21.142"/><polygon class="cls-1" points="617.58 34.645 634.63 34.645 634.63 28.985 623.31 28.985 623.31 18.756 634.63 18.756 634.63 13.026 623.31 13.026 623.31 6.206 634.63 6.206 634.63 0.546 617.58 0.546 617.58 34.645 617.58 34.645"/><polygon class="cls-1" points="654.089 0.546 648.36 0.546 648.36 34.645 665.41 34.645 665.41 28.985 654.089 28.985 654.089 0.546 654.089 0.546"/><polygon class="cls-1" points="679.868 6.206 679.868 34.645 685.528 34.645 685.528 6.206 695.213 6.206 695.213 0.546 670.183 0.546 670.183 6.206 679.868 6.206 679.868 6.206"/><path class="cls-1" d="M1033.024,371.055a4.16,4.16,0,1,0-4.16,4.16,4.1632,4.1632,0,0,0,4.16-4.16Z" transform="translate(-318.6929 -340.0244)"/></svg>